<svg xmlns="http://www.w3.org/2000/svg" width="900" height="420">
<rect width="100%" height="100%" fill="white"/>
<text x="70" y="28" font-size="22" font-family="Helvetica">Colorfulness Distribution</text>
<line x1="70" y1="360" x2="870" y2="360" stroke="black"/>
<line x1="70" y1="50" x2="70" y2="360" stroke="black"/>
<rect x="70.0" y="50.0" width="62.7" height="310.0" fill="#3b6ea8"/><text x="70.0" y="400" font-size="10">3.2</text><rect x="136.7" y="360.0" width="62.7" height="0.0" fill="#3b6ea8"/><text x="136.7" y="400" font-size="10">4.7</text><rect x="203.3" y="360.0" width="62.7" height="0.0" fill="#3b6ea8"/><text x="203.3" y="400" font-size="10">6.2</text><rect x="270.0" y="205.0" width="62.7" height="155.0" fill="#3b6ea8"/><text x="270.0" y="400" font-size="10">7.8</text><rect x="336.7" y="50.0" width="62.7" height="310.0" fill="#3b6ea8"/><text x="336.7" y="400" font-size="10">9.3</text><rect x="403.3" y="205.0" width="62.7" height="155.0" fill="#3b6ea8"/><text x="403.3" y="400" font-size="10">10.8</text><rect x="470.0" y="205.0" width="62.7" height="155.0" fill="#3b6ea8"/><text x="470.0" y="400" font-size="10">12.4</text><rect x="536.7" y="50.0" width="62.7" height="310.0" fill="#3b6ea8"/><text x="536.7" y="400" font-size="10">13.9</text><rect x="603.3" y="360.0" width="62.7" height="0.0" fill="#3b6ea8"/><text x="603.3" y="400" font-size="10">15.4</text><rect x="670.0" y="205.0" width="62.7" height="155.0" fill="#3b6ea8"/><text x="670.0" y="400" font-size="10">17.0</text><rect x="736.7" y="360.0" width="62.7" height="0.0" fill="#3b6ea8"/><text x="736.7" y="400" font-size="10">18.5</text><rect x="803.3" y="50.0" width="62.7" height="310.0" fill="#3b6ea8"/><text x="803.3" y="400" font-size="10">20.0</text>
<text x="410.0" y="414" font-size="12">colorfulness</text>
</svg>