<svg xmlns="http://www.w3.org/2000/svg" width="900" height="460">
<rect width="100%" height="100%" fill="white"/>
<text x="70" y="28" font-size="22" font-family="Helvetica">Saturation vs Edge Density</text>
<line x1="70" y1="400" x2="860" y2="400" stroke="black"/>
<line x1="70" y1="50" x2="70" y2="400" stroke="black"/>
<circle cx="843.0" cy="50.0" r="5" fill="#a63b6e"/><text x="850.0" y="43.0" font-size="10">PXL_20260319_22160</text><circle cx="669.7" cy="50.0" r="5" fill="#a63b6e"/><text x="676.7" y="43.0" font-size="10">PXL_20260319_22161</text><circle cx="318.7" cy="50.0" r="5" fill="#a63b6e"/><text x="325.7" y="43.0" font-size="10">PXL_20260319_22162</text><circle cx="185.9" cy="400.0" r="5" fill="#a63b6e"/><text x="192.9" y="393.0" font-size="10">PXL_20260319_22164</text><circle cx="229.3" cy="115.6" r="5" fill="#a63b6e"/><text x="236.3" y="108.6" font-size="10">PXL_20260319_22165</text><circle cx="192.8" cy="50.0" r="5" fill="#a63b6e"/><text x="199.8" y="43.0" font-size="10">PXL_20260319_22172</text><circle cx="150.9" cy="50.0" r="5" fill="#a63b6e"/><text x="157.9" y="43.0" font-size="10">PXL_20260319_22174</text><circle cx="292.2" cy="139.8" r="5" fill="#a63b6e"/><text x="299.2" y="132.8" font-size="10">PXL_20260319_22180</text><circle cx="860.0" cy="295.9" r="5" fill="#a63b6e"/><text x="867.0" y="288.9" font-size="10">PXL_20260319_22182</text><circle cx="70.0" cy="53.0" r="5" fill="#a63b6e"/><text x="77.0" y="46.0" font-size="10">PXL_20260319_22192</text><circle cx="247.8" cy="50.0" r="5" fill="#a63b6e"/><text x="254.8" y="43.0" font-size="10">PXL_20260319_22215</text><circle cx="264.8" cy="84.7" r="5" fill="#a63b6e"/><text x="271.8" y="77.7" font-size="10">PXL_20260319_22220</text>
<text x="370.0" y="452" font-size="12">saturation_mean</text>
<text x="8" y="230.0" font-size="12" transform="rotate(-90 8,230.0)">edge_density</text>
</svg>